<svg width="88" height="64" viewBox="0 0 88 64" fill="none" xmlns="http://www.w3.org/2000/svg">
<path d="M78.5846 36.4545C77.0967 35.7482 75.1624 34.3356 70.9963 31.3692C67.1278 28.544 61.7714 24.73 59.242 23.5999C54.4807 21.481 47.4876 17.9496 44.9582 16.6782C41.2385 16.6782 37.2212 16.8195 34.9893 16.8195C34.8406 16.9608 34.8406 17.102 34.6918 17.2433C33.0551 20.2097 30.6745 24.5887 26.8059 26.1426C25.4668 26.7076 23.8301 26.9901 22.1935 26.9901C19.664 26.9901 17.581 26.2838 16.5395 24.8712C15.7955 23.8824 15.498 22.7524 15.7955 21.481C16.0931 18.2321 17.1346 11.7342 19.2177 7.4964C17.2834 6.64884 14.3076 5.23626 11.927 4.10619C9.99276 3.11738 8.65365 4.10619 8.65365 4.10619C7.76091 4.67123 7.16576 5.80129 7.16576 5.80129L0.470241 24.165C0.470241 24.165 -0.124909 26.0013 0.02388 26.9901C0.172669 27.6964 0.321454 28.544 1.80935 29.5328C3.59482 30.8041 5.97545 32.6405 7.46334 34.3356C8.50487 35.6069 8.80244 37.302 9.39759 39.1384C10.7367 37.5846 12.671 36.4545 15.0516 36.4545C15.498 36.4545 15.9443 36.4545 16.3907 36.5957C18.7713 37.1608 20.408 38.7146 21.4495 40.8335C22.1935 40.551 23.0862 40.4097 23.9789 40.4097C25.1693 40.4097 26.3596 40.6923 27.4011 41.2573C28.889 42.1048 29.7817 43.2349 30.2281 44.6475C30.6745 44.5062 31.1208 44.5062 31.716 44.5062C33.0551 44.5062 34.3942 44.93 35.5845 45.4951C37.8163 46.7664 38.8579 49.1678 38.5603 51.993C39.6018 51.993 40.6433 52.2755 41.5361 52.8405C44.5119 54.5356 45.107 58.9146 44.3631 62.0223V62.1636V62.3049C44.8094 62.7286 45.4046 63.1524 45.7022 63.1524C51.6537 65.5538 54.9271 60.6098 54.0344 58.2084C56.1174 59.6209 60.2835 58.9146 62.3666 56.937C64.3008 54.9594 63.4081 51.5692 63.4081 51.5692C63.4081 51.5692 68.9133 54.5356 72.9306 50.8629C75.46 48.4615 73.5257 45.4951 73.5257 45.4951C73.5257 45.4951 78.7334 47.4727 81.114 44.2237C82.8995 41.2573 81.4116 38.7146 78.5846 36.4545Z" fill="black"/>
<path d="M36.4773 64C35.8821 64 35.1382 63.7175 34.543 63.435C32.6087 62.3049 32.3112 60.186 33.5015 58.4909L33.7991 57.9259C34.9894 56.0895 37.9652 55.3832 39.3043 56.2308C40.4946 56.9371 40.9409 59.4797 40.4946 61.5986L40.3458 62.0224C39.0067 63.8588 37.8164 64 36.4773 64Z" fill="black"/>
<path d="M19.3665 22.0461C19.3665 22.0461 20.7056 9.75655 23.8302 7.07263C26.9548 4.38872 29.4842 3.68242 33.7991 2.97612C38.1139 2.26983 47.4877 -0.696608 50.761 0.150945C54.0344 0.998499 59.3908 2.41109 62.5154 2.97612C65.7887 3.54116 69.5085 5.8013 71.4427 5.94256C72.4843 5.94256 75.1625 4.81249 77.2455 3.82367C78.287 3.3999 79.3286 3.68242 79.9237 4.1062C80.9652 4.81249 81.2628 5.94256 81.2628 5.94256L87.8096 25.1538C87.8096 25.1538 88.1071 26.2838 87.9583 26.9901C87.8095 27.5552 87.6608 28.4027 86.3217 29.109C84.0898 30.5216 80.8165 32.6405 80.3701 33.2055C79.7749 34.1943 65.9375 22.6111 60.4323 20.2097C54.7783 17.8083 45.5534 13.0055 45.5534 13.0055C45.5534 13.0055 33.6503 13.1468 32.7575 13.288C31.8648 13.4293 29.3354 21.1985 25.1693 22.7524C23.0862 23.7412 18.9201 23.5999 19.3665 22.0461Z" fill="black"/>
<path d="M14.1589 49.8741C14.0101 49.8741 13.7125 49.8741 13.5637 49.7328C11.3319 49.309 9.99277 47.1902 10.4391 45.0713L10.7367 44.0825C11.1831 41.9636 13.2661 39.5622 15.498 40.1272C17.7298 40.551 18.7713 43.5174 18.325 45.6363L18.0274 47.0489C17.581 48.8853 16.0931 50.0153 14.1589 49.8741Z" fill="black"/>
<path d="M21.0032 54.9594C20.408 54.9594 19.9616 54.9594 19.3665 54.6769C17.4322 53.5469 16.6883 51.0042 17.7298 49.1678L19.6641 46.4839C20.8544 44.6475 23.3838 43.2349 25.3181 44.365C27.2523 45.4951 26.9547 48.0377 26.062 49.8741L24.5741 52.9818C23.6814 54.2531 22.4911 55.1007 21.0032 54.9594Z" fill="black"/>
<path d="M28.7402 59.3385C28.1451 59.3385 27.5499 59.056 26.9547 58.7735C25.0205 57.6434 24.4253 55.242 25.6156 53.5468L28.1451 50.1566C29.3354 48.3202 31.4184 47.6139 33.3527 48.744C35.2869 49.8741 34.6918 52.9818 33.799 54.9594L32.6087 57.5021C31.716 58.7735 30.2281 59.4797 28.7402 59.3385Z" fill="black"/>
</svg>
