<svg width="80" height="70" viewBox="0 0 80 70" fill="none" xmlns="http://www.w3.org/2000/svg">
<path d="M40 0C17.9856 0 0 15.7374 0 35C0 54.2626 17.9856 70 40 70C62.0144 70 80 54.2626 80 35C80 15.7374 62.0144 0 40 0ZM40 7.67986C43.3094 7.67986 46.9065 11.8345 49.0648 18.8849C42.5899 20.018 36.259 19.7662 30.7914 19.0108C33.0936 11.9604 36.6907 7.67986 40 7.67986ZM48.4892 8.56115C53.3813 9.82014 57.6978 11.9604 61.295 14.8561C58.5612 16.1151 55.8273 17.1223 53.2374 17.8777C52.0863 14.1007 50.3597 10.9532 48.4892 8.56115ZM39.8561 23.4173C43.1655 23.4173 46.4748 23.0396 49.9281 22.4101C50.6475 25.5576 51.0791 29.0827 51.223 32.8597H28.3453C28.4892 29.0827 28.9209 25.6835 29.6403 22.536C32.9496 22.9137 36.4029 23.4173 39.8561 23.4173ZM24.1727 32.8597H8.63309C9.06475 27.8237 11.223 22.6619 14.6763 18.5072C17.4101 19.5144 21.1511 20.6475 25.4676 21.5288C24.7482 25.054 24.3166 29.0827 24.1727 32.8597ZM24.1727 36.6367C24.3166 40.4137 24.7482 44.5683 25.4676 48.0935C21.0072 49.1007 17.2662 50.1079 14.5324 51.1151C11.0791 47.0863 8.9209 42.9317 8.48924 36.6367H24.1727ZM28.4892 36.6367H51.3669C51.223 40.4137 50.7914 44.1906 50.072 47.3381C42.8777 46.0791 35.8273 46.205 29.7842 47.2122C29.0648 44.0647 28.6331 40.4137 28.4892 36.6367ZM49.0648 51.1151C46.7626 58.0396 43.3094 62.3201 40 62.3201C36.6907 62.3201 33.0936 58.0396 30.7914 50.9892C36.259 50.2338 42.5899 49.982 49.0648 51.1151ZM53.2374 52.1223C55.9712 52.8777 58.705 53.759 61.295 55.1439C57.6978 58.1655 53.2374 60.3058 48.3453 61.5648C50.5036 59.1727 52.0863 55.8993 53.2374 52.1223ZM54.2446 48.2194C55.1079 44.6942 55.5396 41.5468 55.6835 36.5108H71.223C70.7914 42.8058 68.3453 47.7158 64.3166 51.8705C61.0072 50.3597 57.6978 49.1007 54.2446 48.2194ZM55.6835 32.8597C55.5396 29.0827 55.1079 24.9281 54.2446 21.5288C57.554 20.6475 61.0072 19.2626 64.3166 17.6259C68.2014 21.9065 70.7914 27.8237 71.223 32.8597H55.6835ZM31.3669 8.56115C29.3525 10.9532 27.7698 14.2266 26.4749 18.1295C23.0216 17.3741 20 16.4928 17.554 15.6115C21.4389 12.3381 26.1871 9.94604 31.3669 8.56115ZM17.554 54.3885C19.8561 53.5072 23.0216 52.6259 26.4749 51.8705C27.7698 55.7734 29.3525 59.0468 31.3669 61.5648C26.0432 60.1799 21.4389 57.6619 17.554 54.3885Z" fill="black"/>
</svg>
